# xmcd CD database file
#
# Track frame offsets:
#	150
#	19142
#	39142
#	58507
#	75902
#	92700
#	116397
#	134175
#	149507
#	166642
#
# Disc length: 2506 seconds
#
# Revision: 0
# Processed by: cddbd v1.5.2PL0 Copyright (c) Steve Scherf et al.
# Submitted via: CDex 1.51
#
DISCID=7709c80a
DTITLE=The Mystic Moods - The Best of Mystic Moods
DYEAR=1972
DGENRE=New Age
TTITLE0=Theme From A Summer Place
TTITLE1=Love Token
TTITLE2=The Look of Love
TTITLE3=Moonlight
TTITLE4=The Days of Wine and Roses
TTITLE5=Come Saturday Morning
TTITLE6=Visions
TTITLE7=Ne Dis Rien
TTITLE8=Touch
TTITLE9=The First Time
EXTD=YEAR: 1972
EXTT0=
EXTT1=
EXTT2=
EXTT3=
EXTT4=
EXTT5=
EXTT6=
EXTT7=
EXTT8=
EXTT9=
PLAYORDER=
